<?xml version="1.0" encoding="UTF-8" standalone="no"?><!DOCTYPE svg PUBLIC "-//W3C//DTD SVG 1.1//EN" "http://www.w3.org/Graphics/SVG/1.1/DTD/svg11.dtd"><svg width="100%" height="100%" viewBox="0 0 1563 1563" version="1.1" xmlns="http://www.w3.org/2000/svg" xmlns:xlink="http://www.w3.org/1999/xlink" xml:space="preserve" xmlns:serif="http://www.serif.com/" style="fill-rule:evenodd;clip-rule:evenodd;stroke-linejoin:round;stroke-miterlimit:2;"><rect x="106.23" y="865.668" width="1303.16" height="12.475"/><g transform="matrix(1,0,0,0.977306,0,-15.3798)"><g transform="matrix(76.7416,0,0,76.7416,1409.95,994.786)"></g><text x="873.959px" y="994.786px" style="font-family:'SegoeUI-Bold', 'Segoe UI', sans-serif;font-weight:700;font-size:76.742px;">INMOBILIARIA</text></g><g transform="matrix(1,0,0,0.983989,0,-90.9573)"><g transform="matrix(302.625,0,0,302.625,1280.87,914.467)"></g><text x="546.03px" y="914.467px" style="font-family:'SegoeUI', 'Segoe UI', sans-serif;font-size:302.625px;">CIMA</text></g><rect x="475.644" y="706.196" width="36.978" height="141.379" style="fill:#162133;"/><rect x="322.615" y="665.985" width="49.602" height="48.642" style="fill:#162133;"/><rect x="322.615" y="723.26" width="49.602" height="48.642" style="fill:#162133;"/><rect x="381.083" y="665.985" width="49.602" height="48.642" style="fill:#162133;"/><rect x="381.083" y="723.26" width="49.602" height="48.642" style="fill:#162133;"/><path d="M156.41,703.125l213.252,-296.875l86.588,0l-0,182.434l75.413,86.086l-0.413,0.362l-0,-0.132l-22.208,0l-127.688,-145.759l-124.904,173.884l21.675,-0l-0,75l-121.715,0l0,-75Z" style="fill:#162133;"/></svg>